<svg width="187" height="32" viewBox="0 0 187 32" fill="none" xmlns="http://www.w3.org/2000/svg">
<path d="M38.9941 17.6891V9.81975H41.4469V17.5898C41.4469 20.127 42.7819 21.4937 44.9739 21.4937C47.1466 21.4937 48.4816 20.205 48.4816 17.6867V9.81738H50.9344V17.5685C50.9344 21.6498 48.583 23.6999 44.9329 23.6999C41.3069 23.7023 38.9941 21.6522 38.9941 17.6891Z" fill="white"/>
<path d="M55.7383 13.1781H58.15V14.7789C58.8284 13.8023 59.8037 12.9629 61.4404 12.9629C63.8135 12.9629 65.1871 14.5259 65.1871 16.926V23.4853H62.7754V17.6306C62.7754 16.0298 61.9571 15.1123 60.5231 15.1123C59.1277 15.1123 58.15 16.07 58.15 17.6708V23.4901H55.7383V13.1781Z" fill="white"/>
<path d="M70 9H72.4117V23.2537H70V9Z" fill="white"/>
<path d="M77.2676 9.35156H79.8579V11.5979H77.2676V9.35156ZM77.3666 13.1775H79.7783V23.4871H77.3666V13.1775Z" fill="white"/>
<path d="M83.7812 22.1397L84.8579 20.5389C85.995 21.3783 87.231 21.8086 88.3077 21.8086C89.3434 21.8086 89.9421 21.3783 89.9421 20.6949V20.6571C89.9421 19.8555 88.8268 19.5836 87.5907 19.2123C86.036 18.782 84.3027 18.1577 84.3027 16.1857V16.1455C84.3027 14.1923 85.9564 13.0029 88.0494 13.0029C89.3651 13.0029 90.7991 13.4522 91.9168 14.1734L90.9608 15.8523C89.9445 15.2469 88.8678 14.8757 87.9915 14.8757C87.0548 14.8757 86.5165 15.306 86.5165 15.9114V15.9516C86.5165 16.694 87.6535 17.0062 88.8895 17.3963C90.4249 17.8645 92.1583 18.5479 92.1583 20.4041V20.4443C92.1583 22.6102 90.4442 23.6861 88.2522 23.6861C86.7506 23.6838 85.0969 23.1564 83.7812 22.1397Z" fill="white"/>
<path d="M96.6202 20.6355V15.2064H95.2852V13.1752H96.6202V10.3472H99.0319V13.1776H101.864V15.2087H99.0319V20.2666C99.0319 21.184 99.5099 21.5553 100.328 21.5553C100.867 21.5553 101.345 21.4371 101.823 21.203V23.1348C101.224 23.4659 100.548 23.6621 99.6499 23.6621C97.8779 23.6621 96.6202 22.9007 96.6202 20.6355Z" fill="white"/>
<path d="M105.129 18.3731V18.3329C105.129 15.3842 107.261 12.9629 110.271 12.9629C113.619 12.9629 115.314 15.5403 115.314 18.5079C115.314 18.723 115.295 18.9382 115.273 19.1723H107.538C107.797 20.8512 109.013 21.7875 110.568 21.7875C111.744 21.7875 112.581 21.3572 113.419 20.558L114.834 21.7875C113.837 22.958 112.461 23.7194 110.527 23.7194C107.48 23.7218 105.129 21.5558 105.129 18.3731ZM112.922 17.6117C112.762 16.0889 111.845 14.8971 110.252 14.8971C108.777 14.8971 107.739 16.0109 107.521 17.6117H112.922Z" fill="white"/>
<path d="M118.924 18.3513V18.311C118.924 14.8942 121.297 12.9624 123.808 12.9624C125.541 12.9624 126.639 13.8207 127.395 14.7784V9.2334H129.807V23.4871H127.395V21.7681C126.618 22.8416 125.522 23.6999 123.808 23.6999C121.336 23.7023 118.924 21.7681 118.924 18.3513ZM127.436 18.3513V18.311C127.436 16.3201 126 15.0124 124.387 15.0124C122.733 15.0124 121.357 16.261 121.357 18.311V18.3513C121.357 20.3422 122.753 21.6499 124.387 21.6499C126 21.6522 127.436 20.3233 127.436 18.3513Z" fill="white"/>
<path d="M134.373 22.9221L143.921 10.7397H134.711V9.82227H145.396V10.3874L135.848 22.5697H145.396V23.4872H134.373V22.9221Z" fill="white"/>
<path d="M149.105 18.5476V18.5074C149.105 15.7148 151.317 13.2935 154.349 13.2935C157.359 13.2935 159.551 15.6746 159.551 18.4672V18.5074C159.551 21.3 157.34 23.7213 154.308 23.7213C151.297 23.7213 149.105 21.3402 149.105 18.5476ZM158.494 18.5476V18.5074C158.494 16.1049 156.659 14.192 154.308 14.192C151.896 14.192 150.16 16.1239 150.16 18.4672V18.5074C150.16 20.9098 151.995 22.8227 154.347 22.8227C156.758 22.8227 158.494 20.8909 158.494 18.5476Z" fill="white"/>
<path d="M164.274 13.5299H165.252V15.3838C165.93 14.2133 167.065 13.2935 168.919 13.2935C171.49 13.2935 172.984 15.0125 172.984 17.3937V23.4848H172.006V17.5686C172.006 15.5185 170.831 14.1707 168.776 14.1707C166.782 14.1707 165.249 15.6557 165.249 17.7247V23.4848H164.271V13.5299H164.274Z" fill="white"/>
<path d="M177.512 18.5287V18.4885C177.512 15.599 179.585 13.2959 182.335 13.2959C185.186 13.2959 186.999 15.5612 186.999 18.5098C186.999 18.6848 186.999 18.7439 186.98 18.9H178.547C178.726 21.3804 180.541 22.8252 182.533 22.8252C184.107 22.8252 185.184 22.1418 186.021 21.2622L186.7 21.8486C185.664 22.9411 184.447 23.7237 182.494 23.7237C179.824 23.7214 177.512 21.6334 177.512 18.5287ZM185.944 18.0393C185.804 16.0294 184.629 14.1732 182.297 14.1732C180.283 14.1732 178.728 15.8331 178.55 18.0393H185.944Z" fill="white"/>
<path d="M17.2586 23.1635V21.3948L25.4569 11.674H12.7973V9.55531H28.6339V11.324L20.4355 21.0449H31.8398C32.3782 19.4582 32.6727 17.7628 32.6727 16.0012C32.6727 7.16471 25.3579 0 16.3364 0C13.0507 0 9.99446 0.952931 7.43308 2.58686V17.2923C7.43308 19.82 8.76326 21.1796 10.9456 21.1796C13.1087 21.1796 14.4389 19.8957 14.4389 17.3892V12.6458H16.8795V17.271C16.8795 21.3333 14.5378 23.3763 10.9046 23.3763C7.29306 23.3763 4.98999 21.3357 4.98999 17.3892V4.49272C1.91681 7.40117 0 11.4801 0 15.9988C0 24.8353 7.31479 32 16.3364 32C22.729 32 28.2597 28.4011 30.9418 23.1635H17.2586Z" fill="url(#paint0_linear_58_4012)"/>
<defs>
<linearGradient id="paint0_linear_58_4012" x1="16.3359" y1="-8.47481" x2="16.3359" y2="40.1214" gradientUnits="userSpaceOnUse">
<stop stop-color="#9ACA3C"/>
<stop offset="1" stop-color="#089848"/>
</linearGradient>
</defs>
</svg>
